<svg width="738" height="1024" viewBox="0 0 738 1024" fill="none" xmlns="http://www.w3.org/2000/svg">
<path d="M-412.597 269.78C-351.428 386.564 -163.097 564.246 40.4011 593.146C289.022 628.454 378.786 594.556 533.997 677.229C731.816 782.596 487.695 1019.25 428.813 1124.88C369.932 1230.5 215.264 1331.87 416.785 1607.46C578.002 1827.93 693.468 1610.17 731.049 1473.74C631.544 1460.9 450.079 1381 520.25 1164.09C607.963 892.949 491.156 830.871 409.452 801.814C299.536 776.728 134.689 779.155 54.8751 740.063C-102.766 662.852 -165.813 537.024 -192.133 486.464C-331.568 160.376 69.8172 -25.3165 18.4467 -53.2527" stroke="#2D2A6F" stroke-opacity="0.6" stroke-width="10"/>
</svg>
